<svg xmlns="http://www.w3.org/2000/svg" version="1.1" xmlns:xlink="http://www.w3.org/1999/xlink" xmlns:svgjs="http://svgjs.dev/svgjs" width="1440" height="920" preserveAspectRatio="none" viewBox="0 0 1440 920"><g mask="url(&quot;#SvgjsMask1000&quot;)" fill="none"><rect width="1440" height="920" x="0" y="0" fill="#0e2a47"></rect><use xlink:href="#SvgjsG1003" transform="translate(0, 0)" fill="#0f457b"></use><use xlink:href="#SvgjsG1003" transform="translate(0, 896.9999999999999)" fill="#0f457b"></use><use xlink:href="#SvgjsG1003" transform="translate(896.9999999999999, 0)" fill="#0f457b"></use><use xlink:href="#SvgjsG1003" transform="translate(896.9999999999999, 896.9999999999999)" fill="#0f457b"></use></g><defs><mask id="SvgjsMask1000"><rect width="1440" height="920" fill="#ffffff"></rect></mask><g id="SvgjsG1001"><path d="M8.067-0.016c-3.304 0-5.982 2.678-5.982 5.982 0 5.588 5.982 10.054 5.982 10.054s5.982-4.466 5.982-10.054c0-3.304-2.678-5.982-5.982-5.982z m0 8.625c-1.46 0-2.643-1.183-2.643-2.643S6.607 3.323 8.067 3.323s2.643 1.183 2.643 2.643S9.527 8.609 8.067 8.609z"></path></g><g id="SvgjsG1002"><path d="M8.541 10.856h1.001v1H8.541zM8.243 14.859H10.041v-2.002h-2.001v2.002h0.201z"></path><path d="M14.225 9.282V3.277l-2.788 1.716v2.573h-1.067V4.125h-1.293V1.132h-3.432v4.899h-1.716v-1.682L2.536 3.492 1.142 4.349v3.003H0.07v7.507h3.216V9.103a1.501 1.501 0 0 1 3.004 0v1.184l-1.131 2.874h0.702v1.698h0.429v-2.127h-0.501l0.844-2.146 2.408-0.982 2.409 0.982 0.845 2.146h-0.501v2.127h0.846l2.872-0.001V9.282h-1.287z"></path></g><g id="SvgjsG1003"><use xlink:href="#SvgjsG1001" transform="translate(0, 0) scale(2.3)" fill="#0f457b"></use><use xlink:href="#SvgjsG1002" transform="translate(0, 89.69999999999999) scale(2.3)" fill="#0f457b"></use><use xlink:href="#SvgjsG1002" transform="translate(0, 179.39999999999998) scale(2.3)" fill="#0f457b"></use><use xlink:href="#SvgjsG1002" transform="translate(0, 269.09999999999997) scale(2.3)" fill="#0f457b"></use><use xlink:href="#SvgjsG1002" transform="translate(0, 358.79999999999995) scale(2.3)" fill="#0f457b"></use><use xlink:href="#SvgjsG1002" transform="translate(0, 448.49999999999994) scale(2.3)" fill="#0f457b"></use><use xlink:href="#SvgjsG1001" transform="translate(0, 538.1999999999999) scale(2.3)" fill="#0f457b"></use><use xlink:href="#SvgjsG1001" transform="translate(0, 627.8999999999999) scale(2.3)" fill="#0f457b"></use><use xlink:href="#SvgjsG1002" transform="translate(0, 717.5999999999999) scale(2.3)" fill="#0f457b"></use><use xlink:href="#SvgjsG1002" transform="translate(0, 807.3) scale(2.3)" fill="#0f457b"></use><use xlink:href="#SvgjsG1001" transform="translate(89.69999999999999, 0) scale(2.3)" fill="#0f457b"></use><use xlink:href="#SvgjsG1002" transform="translate(89.69999999999999, 89.69999999999999) scale(2.3)" fill="#0f457b"></use><use xlink:href="#SvgjsG1001" transform="translate(89.69999999999999, 179.39999999999998) scale(2.3)" fill="#0f457b"></use><use xlink:href="#SvgjsG1002" transform="translate(89.69999999999999, 269.09999999999997) scale(2.3)" fill="#0f457b"></use><use xlink:href="#SvgjsG1001" transform="translate(89.69999999999999, 358.79999999999995) scale(2.3)" fill="#0f457b"></use><use xlink:href="#SvgjsG1001" transform="translate(89.69999999999999, 448.49999999999994) scale(2.3)" fill="#0f457b"></use><use xlink:href="#SvgjsG1001" transform="translate(89.69999999999999, 538.1999999999999) scale(2.3)" fill="#0f457b"></use><use xlink:href="#SvgjsG1002" transform="translate(89.69999999999999, 627.8999999999999) scale(2.3)" fill="#0f457b"></use><use xlink:href="#SvgjsG1002" transform="translate(89.69999999999999, 717.5999999999999) scale(2.3)" fill="#0f457b"></use><use xlink:href="#SvgjsG1002" transform="translate(89.69999999999999, 807.3) scale(2.3)" fill="#0f457b"></use><use xlink:href="#SvgjsG1002" transform="translate(179.39999999999998, 0) scale(2.3)" fill="#0f457b"></use><use xlink:href="#SvgjsG1002" transform="translate(179.39999999999998, 89.69999999999999) scale(2.3)" fill="#0f457b"></use><use xlink:href="#SvgjsG1002" transform="translate(179.39999999999998, 179.39999999999998) scale(2.3)" fill="#0f457b"></use><use xlink:href="#SvgjsG1001" transform="translate(179.39999999999998, 269.09999999999997) scale(2.3)" fill="#0f457b"></use><use xlink:href="#SvgjsG1002" transform="translate(179.39999999999998, 358.79999999999995) scale(2.3)" fill="#0f457b"></use><use xlink:href="#SvgjsG1001" transform="translate(179.39999999999998, 448.49999999999994) scale(2.3)" fill="#0f457b"></use><use xlink:href="#SvgjsG1001" transform="translate(179.39999999999998, 538.1999999999999) scale(2.3)" fill="#0f457b"></use><use xlink:href="#SvgjsG1002" transform="translate(179.39999999999998, 627.8999999999999) scale(2.3)" fill="#0f457b"></use><use xlink:href="#SvgjsG1001" transform="translate(179.39999999999998, 717.5999999999999) scale(2.3)" fill="#0f457b"></use><use xlink:href="#SvgjsG1001" transform="translate(179.39999999999998, 807.3) scale(2.3)" fill="#0f457b"></use><use xlink:href="#SvgjsG1001" transform="translate(269.09999999999997, 0) scale(2.3)" fill="#0f457b"></use><use xlink:href="#SvgjsG1002" transform="translate(269.09999999999997, 89.69999999999999) scale(2.3)" fill="#0f457b"></use><use xlink:href="#SvgjsG1002" transform="translate(269.09999999999997, 179.39999999999998) scale(2.3)" fill="#0f457b"></use><use xlink:href="#SvgjsG1001" transform="translate(269.09999999999997, 269.09999999999997) scale(2.3)" fill="#0f457b"></use><use xlink:href="#SvgjsG1002" transform="translate(269.09999999999997, 358.79999999999995) scale(2.3)" fill="#0f457b"></use><use xlink:href="#SvgjsG1001" transform="translate(269.09999999999997, 448.49999999999994) scale(2.3)" fill="#0f457b"></use><use xlink:href="#SvgjsG1002" transform="translate(269.09999999999997, 538.1999999999999) scale(2.3)" fill="#0f457b"></use><use xlink:href="#SvgjsG1001" transform="translate(269.09999999999997, 627.8999999999999) scale(2.3)" fill="#0f457b"></use><use xlink:href="#SvgjsG1002" transform="translate(269.09999999999997, 717.5999999999999) scale(2.3)" fill="#0f457b"></use><use xlink:href="#SvgjsG1001" transform="translate(269.09999999999997, 807.3) scale(2.3)" fill="#0f457b"></use><use xlink:href="#SvgjsG1001" transform="translate(358.79999999999995, 0) scale(2.3)" fill="#0f457b"></use><use xlink:href="#SvgjsG1001" transform="translate(358.79999999999995, 89.69999999999999) scale(2.3)" fill="#0f457b"></use><use xlink:href="#SvgjsG1001" transform="translate(358.79999999999995, 179.39999999999998) scale(2.3)" fill="#0f457b"></use><use xlink:href="#SvgjsG1001" transform="translate(358.79999999999995, 269.09999999999997) scale(2.3)" fill="#0f457b"></use><use xlink:href="#SvgjsG1002" transform="translate(358.79999999999995, 358.79999999999995) scale(2.3)" fill="#0f457b"></use><use xlink:href="#SvgjsG1001" transform="translate(358.79999999999995, 448.49999999999994) scale(2.3)" fill="#0f457b"></use><use xlink:href="#SvgjsG1002" transform="translate(358.79999999999995, 538.1999999999999) scale(2.3)" fill="#0f457b"></use><use xlink:href="#SvgjsG1001" transform="translate(358.79999999999995, 627.8999999999999) scale(2.3)" fill="#0f457b"></use><use xlink:href="#SvgjsG1002" transform="translate(358.79999999999995, 717.5999999999999) scale(2.3)" fill="#0f457b"></use><use xlink:href="#SvgjsG1002" transform="translate(358.79999999999995, 807.3) scale(2.3)" fill="#0f457b"></use><use xlink:href="#SvgjsG1002" transform="translate(448.49999999999994, 0) scale(2.3)" fill="#0f457b"></use><use xlink:href="#SvgjsG1002" transform="translate(448.49999999999994, 89.69999999999999) scale(2.3)" fill="#0f457b"></use><use xlink:href="#SvgjsG1001" transform="translate(448.49999999999994, 179.39999999999998) scale(2.3)" fill="#0f457b"></use><use xlink:href="#SvgjsG1002" transform="translate(448.49999999999994, 269.09999999999997) scale(2.3)" fill="#0f457b"></use><use xlink:href="#SvgjsG1002" transform="translate(448.49999999999994, 358.79999999999995) scale(2.3)" fill="#0f457b"></use><use xlink:href="#SvgjsG1002" transform="translate(448.49999999999994, 448.49999999999994) scale(2.3)" fill="#0f457b"></use><use xlink:href="#SvgjsG1002" transform="translate(448.49999999999994, 538.1999999999999) scale(2.3)" fill="#0f457b"></use><use xlink:href="#SvgjsG1002" transform="translate(448.49999999999994, 627.8999999999999) scale(2.3)" fill="#0f457b"></use><use xlink:href="#SvgjsG1001" transform="translate(448.49999999999994, 717.5999999999999) scale(2.3)" fill="#0f457b"></use><use xlink:href="#SvgjsG1002" transform="translate(448.49999999999994, 807.3) scale(2.3)" fill="#0f457b"></use><use xlink:href="#SvgjsG1001" transform="translate(538.1999999999999, 0) scale(2.3)" fill="#0f457b"></use><use xlink:href="#SvgjsG1001" transform="translate(538.1999999999999, 89.69999999999999) scale(2.3)" fill="#0f457b"></use><use xlink:href="#SvgjsG1002" transform="translate(538.1999999999999, 179.39999999999998) scale(2.3)" fill="#0f457b"></use><use xlink:href="#SvgjsG1001" transform="translate(538.1999999999999, 269.09999999999997) scale(2.3)" fill="#0f457b"></use><use xlink:href="#SvgjsG1002" transform="translate(538.1999999999999, 358.79999999999995) scale(2.3)" fill="#0f457b"></use><use xlink:href="#SvgjsG1001" transform="translate(538.1999999999999, 448.49999999999994) scale(2.3)" fill="#0f457b"></use><use xlink:href="#SvgjsG1001" transform="translate(538.1999999999999, 538.1999999999999) scale(2.3)" fill="#0f457b"></use><use xlink:href="#SvgjsG1001" transform="translate(538.1999999999999, 627.8999999999999) scale(2.3)" fill="#0f457b"></use><use xlink:href="#SvgjsG1001" transform="translate(538.1999999999999, 717.5999999999999) scale(2.3)" fill="#0f457b"></use><use xlink:href="#SvgjsG1002" transform="translate(538.1999999999999, 807.3) scale(2.3)" fill="#0f457b"></use><use xlink:href="#SvgjsG1002" transform="translate(627.8999999999999, 0) scale(2.3)" fill="#0f457b"></use><use xlink:href="#SvgjsG1001" transform="translate(627.8999999999999, 89.69999999999999) scale(2.3)" fill="#0f457b"></use><use xlink:href="#SvgjsG1001" transform="translate(627.8999999999999, 179.39999999999998) scale(2.3)" fill="#0f457b"></use><use xlink:href="#SvgjsG1001" transform="translate(627.8999999999999, 269.09999999999997) scale(2.3)" fill="#0f457b"></use><use xlink:href="#SvgjsG1001" transform="translate(627.8999999999999, 358.79999999999995) scale(2.3)" fill="#0f457b"></use><use xlink:href="#SvgjsG1002" transform="translate(627.8999999999999, 448.49999999999994) scale(2.3)" fill="#0f457b"></use><use xlink:href="#SvgjsG1001" transform="translate(627.8999999999999, 538.1999999999999) scale(2.3)" fill="#0f457b"></use><use xlink:href="#SvgjsG1001" transform="translate(627.8999999999999, 627.8999999999999) scale(2.3)" fill="#0f457b"></use><use xlink:href="#SvgjsG1002" transform="translate(627.8999999999999, 717.5999999999999) scale(2.3)" fill="#0f457b"></use><use xlink:href="#SvgjsG1001" transform="translate(627.8999999999999, 807.3) scale(2.3)" fill="#0f457b"></use><use xlink:href="#SvgjsG1001" transform="translate(717.5999999999999, 0) scale(2.3)" fill="#0f457b"></use><use xlink:href="#SvgjsG1002" transform="translate(717.5999999999999, 89.69999999999999) scale(2.3)" fill="#0f457b"></use><use xlink:href="#SvgjsG1002" transform="translate(717.5999999999999, 179.39999999999998) scale(2.3)" fill="#0f457b"></use><use xlink:href="#SvgjsG1002" transform="translate(717.5999999999999, 269.09999999999997) scale(2.3)" fill="#0f457b"></use><use xlink:href="#SvgjsG1001" transform="translate(717.5999999999999, 358.79999999999995) scale(2.3)" fill="#0f457b"></use><use xlink:href="#SvgjsG1001" transform="translate(717.5999999999999, 448.49999999999994) scale(2.3)" fill="#0f457b"></use><use xlink:href="#SvgjsG1002" transform="translate(717.5999999999999, 538.1999999999999) scale(2.3)" fill="#0f457b"></use><use xlink:href="#SvgjsG1001" transform="translate(717.5999999999999, 627.8999999999999) scale(2.3)" fill="#0f457b"></use><use xlink:href="#SvgjsG1001" transform="translate(717.5999999999999, 717.5999999999999) scale(2.3)" fill="#0f457b"></use><use xlink:href="#SvgjsG1002" transform="translate(717.5999999999999, 807.3) scale(2.3)" fill="#0f457b"></use><use xlink:href="#SvgjsG1002" transform="translate(807.3, 0) scale(2.3)" fill="#0f457b"></use><use xlink:href="#SvgjsG1002" transform="translate(807.3, 89.69999999999999) scale(2.3)" fill="#0f457b"></use><use xlink:href="#SvgjsG1002" transform="translate(807.3, 179.39999999999998) scale(2.3)" fill="#0f457b"></use><use xlink:href="#SvgjsG1001" transform="translate(807.3, 269.09999999999997) scale(2.3)" fill="#0f457b"></use><use xlink:href="#SvgjsG1001" transform="translate(807.3, 358.79999999999995) scale(2.3)" fill="#0f457b"></use><use xlink:href="#SvgjsG1002" transform="translate(807.3, 448.49999999999994) scale(2.3)" fill="#0f457b"></use><use xlink:href="#SvgjsG1001" transform="translate(807.3, 538.1999999999999) scale(2.3)" fill="#0f457b"></use><use xlink:href="#SvgjsG1002" transform="translate(807.3, 627.8999999999999) scale(2.3)" fill="#0f457b"></use><use xlink:href="#SvgjsG1001" transform="translate(807.3, 717.5999999999999) scale(2.3)" fill="#0f457b"></use><use xlink:href="#SvgjsG1002" transform="translate(807.3, 807.3) scale(2.3)" fill="#0f457b"></use></g></defs></svg>